<svg width="31" height="31" viewBox="0 0 31 31" fill="none" xmlns="http://www.w3.org/2000/svg">
<path id="Vector" d="M30.5 21.785C30.5 27.245 27.245 30.5 21.785 30.5H20C19.175 30.5 18.5 29.825 18.5 29V20.345C18.5 19.94 18.83 19.595 19.235 19.595L21.875 19.55C22.085 19.535 22.265 19.385 22.31 19.175L22.835 16.31C22.88 16.04 22.67 15.785 22.385 15.785L19.19 15.83C18.77 15.83 18.44 15.5 18.425 15.095L18.365 11.42C18.365 11.18 18.56 10.97 18.815 10.97L22.415 10.91C22.67 10.91 22.865 10.715 22.865 10.46L22.805 6.85999C22.805 6.60499 22.61 6.41 22.355 6.41L18.305 6.47002C15.815 6.51502 13.835 8.555 13.88 11.045L13.955 15.17C13.97 15.59 13.64 15.92 13.22 15.935L11.42 15.965C11.165 15.965 10.97 16.16 10.97 16.415L11.015 19.265C11.015 19.52 11.21 19.715 11.465 19.715L13.265 19.685C13.685 19.685 14.015 20.015 14.03 20.42L14.165 28.97C14.18 29.81 13.505 30.5 12.665 30.5H9.215C3.755 30.5 0.5 27.245 0.5 21.77V9.215C0.5 3.755 3.755 0.5 9.215 0.5H21.785C27.245 0.5 30.5 3.755 30.5 9.215V21.785Z" fill="#545454"/>
</svg>
