<svg width="15" height="16" viewBox="0 0 15 16" fill="none" xmlns="http://www.w3.org/2000/svg">
<g id="&#240;&#159;&#166;&#134; icon &#34;Search icon&#34;">
<path id="Vector" d="M13.8471 13.4685L11.1377 10.5478C11.0154 10.416 10.8496 10.3428 10.6757 10.3428H10.2327C10.9828 9.30871 11.4285 8.00806 11.4285 6.59316C11.4285 3.22727 8.89839 0.5 5.77588 0.5C2.65337 0.5 0.123291 3.22727 0.123291 6.59316C0.123291 9.95904 2.65337 12.6863 5.77588 12.6863C7.08847 12.6863 8.29508 12.2059 9.25439 11.3974V11.8749C9.25439 12.0623 9.32233 12.241 9.44462 12.3729L12.1541 15.2935C12.4095 15.5688 12.8226 15.5688 13.0753 15.2935L13.8444 14.4645C14.0999 14.1891 14.0999 13.7438 13.8471 13.4685ZM5.77588 10.3428C3.85454 10.3428 2.29736 8.66717 2.29736 6.59316C2.29736 4.52207 3.85182 2.84352 5.77588 2.84352C7.69721 2.84352 9.25439 4.51914 9.25439 6.59316C9.25439 8.66424 7.69993 10.3428 5.77588 10.3428Z" fill="#727272"/>
</g>
</svg>
