<svg width="31" height="31" viewBox="0 0 31 31" fill="none" xmlns="http://www.w3.org/2000/svg">
<g id="&#240;&#159;&#166;&#134; icon &#34;instagram fill icon&#34;">
<path id="Vector" fill-rule="evenodd" clip-rule="evenodd" d="M9.31583 0.59C10.9158 0.516664 11.4258 0.5 15.5 0.5C19.575 0.5 20.0841 0.517495 21.6833 0.59C23.2808 0.662505 24.3717 0.916673 25.3258 1.2875C26.3266 1.66429 27.2331 2.25465 27.9825 3.0175C28.7454 3.76673 29.3359 4.67336 29.7125 5.67417C30.0833 6.62833 30.3366 7.71917 30.41 9.31583C30.4834 10.9158 30.5 11.4258 30.5 15.5C30.5 19.5741 30.4825 20.0841 30.41 21.6842C30.3375 23.2808 30.0833 24.3717 29.7125 25.3258C29.3292 26.3117 28.8158 27.1491 27.9825 27.9825C27.2333 28.7454 26.3266 29.3359 25.3258 29.7125C24.3717 30.0833 23.2808 30.3366 21.6842 30.41C20.0841 30.4834 19.5741 30.5 15.5 30.5C11.4258 30.5 10.9158 30.4825 9.31583 30.41C7.71917 30.3375 6.62833 30.0833 5.67417 29.7125C4.68833 29.3292 3.85084 28.8158 3.0175 27.9825C2.25451 27.2333 1.66411 26.3266 1.2875 25.3258C0.916673 24.3717 0.663336 23.2808 0.59 21.6842C0.516664 20.0841 0.5 19.575 0.5 15.5C0.5 11.425 0.517495 10.9158 0.59 9.31667C0.662505 7.71917 0.916673 6.62833 1.2875 5.67417C1.66429 4.67342 2.25465 3.76684 3.0175 3.0175C3.76671 2.25451 4.67334 1.66411 5.67417 1.2875C6.62833 0.916673 7.71917 0.663336 9.31583 0.59ZM21.5616 3.29C19.98 3.21833 19.505 3.2025 15.5 3.2025C11.495 3.2025 11.02 3.21833 9.43834 3.29C7.97584 3.35667 7.18167 3.60083 6.65333 3.80667C5.95333 4.07833 5.45333 4.40333 4.92833 4.92833C4.40417 5.45333 4.07833 5.95333 3.80667 6.65333C3.60083 7.18167 3.35667 7.97584 3.29 9.43834C3.21833 11.02 3.2025 11.495 3.2025 15.5C3.2025 19.505 3.21833 19.98 3.29 21.5616C3.35667 23.0241 3.60083 23.8183 3.80667 24.3467C4.04697 24.9983 4.43026 25.5876 4.92833 26.0717C5.41228 26.5697 6.00174 26.953 6.65333 27.1933C7.18167 27.3992 7.97584 27.6433 9.43834 27.71C11.02 27.7817 11.4942 27.7975 15.5 27.7975C19.5058 27.7975 19.98 27.7817 21.5616 27.71C23.0241 27.6433 23.8183 27.3992 24.3467 27.1933C25.0467 26.9217 25.5467 26.5967 26.0717 26.0717C26.5697 25.5878 26.953 24.9983 27.1933 24.3467C27.3992 23.8183 27.6433 23.0241 27.71 21.5616C27.7817 19.98 27.7975 19.505 27.7975 15.5C27.7975 11.495 27.7817 11.02 27.71 9.43834C27.6433 7.97584 27.3992 7.18167 27.1933 6.65333C26.9217 5.95333 26.5967 5.45333 26.0717 4.92833C25.5467 4.40417 25.0467 4.07833 24.3467 3.80667C23.8183 3.60083 23.0241 3.35667 21.5616 3.29ZM13.5848 20.124C14.192 20.3755 14.8427 20.505 15.5 20.505C16.8275 20.505 18.1005 19.9776 19.039 19.039C19.9778 18.1005 20.5051 16.8274 20.5051 15.5C20.5051 14.1726 19.9778 12.8995 19.039 11.9609C18.1005 11.0223 16.8275 10.495 15.5 10.495C14.8427 10.495 14.192 10.6245 13.5848 10.876C12.9774 11.1275 12.4257 11.4962 11.961 11.9609C11.4962 12.4257 11.1275 12.9774 10.876 13.5846C10.6245 14.1919 10.495 14.8427 10.495 15.5C10.495 16.1573 10.6245 16.8081 10.876 17.4154C11.1275 18.0226 11.4962 18.5743 11.961 19.039C12.4257 19.5038 12.9774 19.8725 13.5848 20.124ZM10.0483 10.0482C11.4942 8.60229 13.4552 7.78999 15.5 7.78999C17.5449 7.78999 19.506 8.60229 20.9518 10.0482C22.3977 11.4941 23.21 13.4552 23.21 15.5C23.21 17.5448 22.3977 19.5058 20.9518 20.9518C19.506 22.3977 17.5449 23.21 15.5 23.21C13.4552 23.21 11.4942 22.3977 10.0483 20.9518C8.60235 19.5058 7.79004 17.5448 7.79004 15.5C7.79004 13.4552 8.60235 11.4941 10.0483 10.0482ZM24.9196 8.9387C25.2613 8.5969 25.4533 8.13335 25.4533 7.65C25.4533 7.16663 25.2613 6.70307 24.9196 6.36129C24.5777 6.01951 24.1142 5.8275 23.6308 5.8275C23.1475 5.8275 22.6839 6.01951 22.3422 6.36129C22.0003 6.70307 21.8083 7.16663 21.8083 7.65C21.8083 8.13335 22.0003 8.5969 22.3422 8.9387C22.6839 9.28048 23.1475 9.4725 23.6308 9.4725C24.1142 9.4725 24.5777 9.28048 24.9196 8.9387Z" fill="#545454"/>
</g>
</svg>
